<svg xmlns="http://www.w3.org/2000/svg" width="220" height="40" viewBox="0 0 220 40">
  <defs>
    <linearGradient id="g" x1="0" y1="0" x2="1" y2="1">
      <stop stop-color="#39e2ff" offset="0"/>
      <stop stop-color="#6ee7ff" offset="1"/>
    </linearGradient>
  </defs>
  <rect rx="8" width="40" height="40" fill="url(#g)"/>
  <g fill="#0b0b0c" transform="translate(6,8)">
    <!-- SWI monogram -->
    <path d="M6 10c0-3.3 2.4-6 6.6-6c2.7 0 4.7 1 6 2.6l-2.4 1.9c-.8-1-2-1.7-3.6-1.7c-2.2 0-3.7 1.3-3.7 3s1.4 2.7 4.1 3.2c3.7.8 6.2 2.4 6.2 5.7c0 3.5-2.8 6.1-7.1 6.1c-3 0-5.5-1.1-7.2-3.1l2.4-1.9c1.2 1.4 2.8 2.1 4.9 2.1c2.3 0 3.9-1.2 3.9-3s-1.6-2.6-4.4-3.2C8.4 15.1 6 13.3 6 10z"/>
    <rect x="24" y="0" width="3" height="24" rx="1.5"/>
    <path d="M33.5 0h3v24h-3z"/>
  </g>
  <text x="56" y="18" fill="#ffffff" font-family="Inter,Segoe UI,Arial" font-weight="800" font-size="18">SWI</text>
  <text x="56" y="33" fill="#9ccce0" font-family="Inter,Segoe UI,Arial" font-weight="600" font-size="12">Scale with Ivory</text>
</svg>
